<svg xmlns="http://www.w3.org/2000/svg" xmlns:xlink="http://www.w3.org/1999/xlink" width="1024" zoomAndPan="magnify" viewBox="0 0 768 767.999994" height="1024" preserveAspectRatio="xMidYMid meet" version="1.2"><g id="f0d73945ec"><rect x="0" width="768" y="0" height="767.999994" style="fill:#ffffff;fill-opacity:1;stroke:none;"/><rect x="0" width="768" y="0" height="767.999994" style="fill:#ffffff;fill-opacity:1;stroke:none;"/><path style=" stroke:none;fill-rule:nonzero;fill:#e50941;fill-opacity:1;" d="M 324.113281 110.320312 L 321.863281 110.320312 C 321.789062 110.320312 321.722656 110.347656 321.664062 110.402344 C 321.609375 110.457031 321.582031 110.523438 321.582031 110.601562 C 321.582031 110.679688 321.609375 110.746094 321.664062 110.800781 C 321.722656 110.855469 321.789062 110.882812 321.863281 110.882812 L 323.4375 110.882812 L 320.914062 113.402344 C 320.863281 113.457031 320.835938 113.523438 320.835938 113.601562 C 320.835938 113.679688 320.863281 113.742188 320.917969 113.796875 C 320.972656 113.851562 321.039062 113.878906 321.117188 113.878906 C 321.191406 113.882812 321.257812 113.855469 321.3125 113.800781 L 323.832031 111.28125 L 323.832031 112.851562 C 323.832031 112.929688 323.859375 112.996094 323.914062 113.050781 C 323.972656 113.105469 324.035156 113.132812 324.113281 113.132812 C 324.191406 113.132812 324.257812 113.105469 324.3125 113.050781 C 324.367188 112.996094 324.394531 112.929688 324.394531 112.851562 L 324.394531 110.601562 C 324.394531 110.523438 324.363281 110.457031 324.3125 110.40625 L 324.3125 110.402344 C 324.257812 110.347656 324.191406 110.320312 324.113281 110.320312 Z M 324.113281 110.320312 "/></g></svg>